<?xml version="1.0" encoding="UTF-8" standalone="no"?>
<!-- Created with Inkscape (http://www.inkscape.org/) -->

<svg
   width="100"
   height="100"
   viewBox="0 0 26.458333 26.458334"
   version="1.1"
   id="svg5"
   inkscape:version="1.1.1 (3bf5ae0d25, 2021-09-20)"
   sodipodi:docname="logo.svg"
   xmlns:inkscape="http://www.inkscape.org/namespaces/inkscape"
   xmlns:sodipodi="http://sodipodi.sourceforge.net/DTD/sodipodi-0.dtd"
   xmlns="http://www.w3.org/2000/svg"
   xmlns:svg="http://www.w3.org/2000/svg">
  <sodipodi:namedview
     id="namedview7"
     pagecolor="#ffffff"
     bordercolor="#666666"
     borderopacity="1.0"
     inkscape:pageshadow="2"
     inkscape:pageopacity="0.0"
     inkscape:pagecheckerboard="0"
     inkscape:document-units="px"
     showgrid="false"
     units="px"
     inkscape:zoom="3.0003928"
     inkscape:cx="78.823012"
     inkscape:cy="75.490115"
     inkscape:window-width="1680"
     inkscape:window-height="997"
     inkscape:window-x="-8"
     inkscape:window-y="270"
     inkscape:window-maximized="1"
     inkscape:current-layer="layer1" />
  <defs
     id="defs2">
    <clipPath
       clipPathUnits="userSpaceOnUse"
       id="clipPath894">
      <g
         inkscape:label="Clip"
         id="use896">
        <g
           style="fill:#000000"
           id="g902"
           transform="matrix(2.5426762,0,0,2.7043448,50.087054,50.087055)">
          <path
             d="M 0,0 H 24 V 24 H 0 Z"
             fill="none"
             id="path898" />
          <path
             d="m 8.66,13.07 c 0.15,0 0.29,-0.01 0.43,-0.03 0.47,1.15 1.6,1.96 2.91,1.96 1.31,0 2.44,-0.81 2.91,-1.96 0.14,0.02 0.29,0.03 0.43,0.03 1.73,0 3.14,-1.41 3.14,-3.14 0,-0.71 -0.25,-1.39 -0.67,-1.93 0.43,-0.54 0.67,-1.22 0.67,-1.93 0,-1.73 -1.41,-3.14 -3.14,-3.14 -0.15,0 -0.29,0.01 -0.43,0.03 C 14.44,1.81 13.31,1 12,1 10.69,1 9.56,1.81 9.09,2.96 8.95,2.94 8.8,2.93 8.66,2.93 6.93,2.93 5.52,4.34 5.52,6.07 5.52,6.78 5.77,7.46 6.19,8 5.76,8.54 5.51,9.22 5.51,9.93 c 0,1.73 1.41,3.14 3.15,3.14 z M 12,13 c -0.62,0 -1.12,-0.49 -1.14,-1.1 l 0.12,-1.09 C 11.3,10.93 11.64,11 12,11 c 0.36,0 0.71,-0.07 1.03,-0.19 l 0.11,1.09 C 13.12,12.51 12.62,13 12,13 Z m 3.34,-1.93 C 15.1,11.07 14.88,11 14.7,10.87 L 13.89,10.3 c 0.55,-0.45 0.94,-1.09 1.06,-1.83 l 0.88,0.42 c 0.4,0.19 0.66,0.59 0.66,1.03 0,0.64 -0.52,1.15 -1.15,1.15 z M 14.69,5.13 c 0.2,-0.13 0.42,-0.2 0.65,-0.2 0.63,0 1.14,0.51 1.14,1.14 0,0.44 -0.25,0.83 -0.66,1.03 L 14.94,7.52 C 14.82,6.78 14.43,6.14 13.87,5.69 Z M 12,3 c 0.62,0 1.12,0.49 1.14,1.1 L 13.03,5.19 C 12.71,5.07 12.36,5 12,5 11.64,5 11.3,5.07 10.98,5.19 L 10.86,4.1 C 10.88,3.49 11.38,3 12,3 Z M 8.66,4.93 C 8.9,4.93 9.12,5 9.3,5.13 l 0.81,0.56 C 9.56,6.14 9.17,6.78 9.05,7.52 L 8.17,7.1 C 7.77,6.9 7.51,6.51 7.51,6.07 7.51,5.44 8.03,4.93 8.66,4.93 Z M 8.17,8.9 9.05,8.48 c 0.12,0.74 0.51,1.38 1.07,1.83 l -0.81,0.55 c -0.2,0.13 -0.42,0.2 -0.65,0.2 C 8.03,11.06 7.52,10.55 7.52,9.92 7.51,9.49 7.77,9.1 8.17,8.9 Z M 12,22 c 4.97,0 9,-4.03 9,-9 -4.97,0 -9,4.03 -9,9 z m 2.44,-2.44 c 0.71,-1.9 2.22,-3.42 4.12,-4.12 -0.71,1.9 -2.22,3.41 -4.12,4.12 z M 3,13 c 0,4.97 4.03,9 9,9 0,-4.97 -4.03,-9 -9,-9 z m 2.44,2.44 c 1.9,0.71 3.42,2.22 4.12,4.12 -1.9,-0.71 -3.41,-2.22 -4.12,-4.12 z"
             id="path900" />
        </g>
      </g>
    </clipPath>
  </defs>
  <g
     inkscape:label="Ebene 1"
     inkscape:groupmode="layer"
     id="layer1">
    <g
       inkscape:label="Ebene 1"
       id="layer1-7"
       transform="matrix(0.24301415,0,0,0.25862013,-2.5502272,-17.49889)">
      <g
         style="fill:#000000"
         id="g55"
         transform="matrix(4.58558,0,0,4.58558,13.296682,65.018822)">
        <path
           d="M 0,0 H 24 V 24 H 0 Z"
           fill="none"
           id="path43" />
        <path
           id="path45"
           style="stroke-width:17.3313"
           transform="matrix(0.05769899,0,0,0.05769899,-7.5381659,-26.076348)"
           d="m 147.97852,486.59961 v 34.66406 h 34.6621 l 62.39258,131.54492 -23.39648,42.28711 c -12.65187,23.22398 3.98451,51.47461 30.32812,51.47461 H 459.94141 V 711.9082 H 251.96484 l 19.06446,-34.66406 h 129.11914 c 12.99849,0 24.43742,-7.10419 30.33008,-17.84961 L 497.37695,537.90039 467.2207,521.26367 400.14844,642.58203 H 278.48242 L 204.65039,486.59961 Z m 129.98437,35.98437 c -0.15749,0.0828 -0.3151,0.16532 -0.47266,0.24805 0.17347,-0.0519 0.34774,-0.10116 0.52149,-0.15234 -0.0159,-0.0321 -0.0329,-0.0636 -0.0488,-0.0957 z m 102.98828,28.2793 c -0.0858,0.20029 -0.17027,0.40119 -0.25586,0.60156 0.0565,-7.6e-4 0.11739,-9.5e-4 0.17188,-0.002 0.0288,-0.2084 0.0638,-0.44741 0.084,-0.59961 z M 251.96484,763.90234 c -19.06445,0 -34.48828,15.59765 -34.48828,34.66211 0,19.06446 15.42383,34.66211 34.48828,34.66211 19.06446,0 34.66407,-15.59765 34.66407,-34.66211 0,-19.06446 -15.59961,-34.66211 -34.66407,-34.66211 z m 173.31446,0 c -19.06446,0 -34.49024,15.59765 -34.49024,34.66211 0,19.06446 15.42578,34.66211 34.49024,34.66211 19.06446,0 34.66211,-15.59765 34.66211,-34.66211 0,-19.06446 -15.59765,-34.66211 -34.66211,-34.66211 z" />
      </g>
      <g
         style="fill:#000000"
         id="g1008"
         transform="matrix(2.0944131,0,0,1.9915331,43.56152,70.369121)">
        <path
           d="M 0,0 H 24 V 24 H 0 Z"
           fill="none"
           id="path996" />
        <path
           d="m 8.66,13.07 c 0.15,0 0.29,-0.01 0.43,-0.03 0.47,1.15 1.6,1.96 2.91,1.96 1.31,0 2.44,-0.81 2.91,-1.96 0.14,0.02 0.29,0.03 0.43,0.03 1.73,0 3.14,-1.41 3.14,-3.14 0,-0.71 -0.25,-1.39 -0.67,-1.93 0.43,-0.54 0.67,-1.22 0.67,-1.93 0,-1.73 -1.41,-3.14 -3.14,-3.14 -0.15,0 -0.29,0.01 -0.43,0.03 C 14.44,1.81 13.31,1 12,1 10.69,1 9.56,1.81 9.09,2.96 8.95,2.94 8.8,2.93 8.66,2.93 6.93,2.93 5.52,4.34 5.52,6.07 5.52,6.78 5.77,7.46 6.19,8 5.76,8.54 5.51,9.22 5.51,9.93 c 0,1.73 1.41,3.14 3.15,3.14 z M 12,13 c -0.62,0 -1.12,-0.49 -1.14,-1.1 l 0.12,-1.09 C 11.3,10.93 11.64,11 12,11 c 0.36,0 0.71,-0.07 1.03,-0.19 l 0.11,1.09 C 13.12,12.51 12.62,13 12,13 Z m 3.34,-1.93 C 15.1,11.07 14.88,11 14.7,10.87 L 13.89,10.3 c 0.55,-0.45 0.94,-1.09 1.06,-1.83 l 0.88,0.42 c 0.4,0.19 0.66,0.59 0.66,1.03 0,0.64 -0.52,1.15 -1.15,1.15 z M 14.69,5.13 c 0.2,-0.13 0.42,-0.2 0.65,-0.2 0.63,0 1.14,0.51 1.14,1.14 0,0.44 -0.25,0.83 -0.66,1.03 L 14.94,7.52 C 14.82,6.78 14.43,6.14 13.87,5.69 Z M 12,3 c 0.62,0 1.12,0.49 1.14,1.1 L 13.03,5.19 C 12.71,5.07 12.36,5 12,5 11.64,5 11.3,5.07 10.98,5.19 L 10.86,4.1 C 10.88,3.49 11.38,3 12,3 Z M 8.66,4.93 C 8.9,4.93 9.12,5 9.3,5.13 l 0.81,0.56 C 9.56,6.14 9.17,6.78 9.05,7.52 L 8.17,7.1 C 7.77,6.9 7.51,6.51 7.51,6.07 7.51,5.44 8.03,4.93 8.66,4.93 Z M 8.17,8.9 9.05,8.48 c 0.12,0.74 0.51,1.38 1.07,1.83 l -0.81,0.55 c -0.2,0.13 -0.42,0.2 -0.65,0.2 C 8.03,11.06 7.52,10.55 7.52,9.92 7.51,9.49 7.77,9.1 8.17,8.9 Z M 12,22 c 4.97,0 9,-4.03 9,-9 -4.97,0 -9,4.03 -9,9 z m 2.44,-2.44 c 0.71,-1.9 2.22,-3.42 4.12,-4.12 -0.71,1.9 -2.22,3.41 -4.12,4.12 z M 3,13 c 0,4.97 4.03,9 9,9 0,-4.97 -4.03,-9 -9,-9 z m 2.44,2.44 c 1.9,0.71 3.42,2.22 4.12,4.12 -1.9,-0.71 -3.41,-2.22 -4.12,-4.12 z"
           id="path998" />
      </g>
    </g>
  </g>
</svg>
